<svg width="88" height="73" viewBox="0 0 88 73" fill="none" xmlns="http://www.w3.org/2000/svg">
<path d="M24.4957 0.494141C18.1192 0.494141 12.0038 2.99617 7.49487 7.44981C2.98596 11.9034 0.452881 17.9439 0.452881 24.2423C0.452881 26.4012 0.84631 28.5601 1.4146 30.719H19.25L24.8017 16.1679C26.1132 12.7136 31.2715 12.3682 32.9326 16.1679L41.9815 39.3547L44.5606 33.2234C45.1289 31.7985 46.6589 30.719 48.5386 30.719H86.9197C87.488 28.5601 87.8815 26.4012 87.8815 24.2423C87.8815 17.9439 85.3484 11.9034 80.8395 7.44981C76.3306 2.99617 70.2152 0.494141 63.8386 0.494141C55.7077 0.494141 48.5386 4.50973 44.1672 10.5979C39.7957 4.50973 32.6266 0.494141 24.4957 0.494141ZM4.82431 37.1958C3.66493 37.1958 2.55304 37.6507 1.73324 38.4605C0.913441 39.2702 0.452881 40.3685 0.452881 41.5136C0.452881 42.6588 0.913441 43.7571 1.73324 44.5668C2.55304 45.3766 3.66493 45.8315 4.82431 45.8315H15.4906L39.7957 69.5796C44.1672 73.4657 44.1672 73.4657 48.5386 69.5796L72.8437 45.8315H83.51C84.6694 45.8315 85.7813 45.3766 86.6011 44.5668C87.4209 43.7571 87.8815 42.6588 87.8815 41.5136C87.8815 40.3685 87.4209 39.2702 86.6011 38.4605C85.7813 37.6507 84.6694 37.1958 83.51 37.1958H50.2872L46.2217 47.1268C44.4732 51.4878 39.446 50.8833 37.8286 47.2564L28.8672 24.2423L24.6706 34.3028C24.0149 35.9436 22.5286 37.1958 20.5615 37.1958H4.82431Z" fill="#1D957F"/>
</svg>
