<svg width="68" height="73" viewBox="0 0 68 73" fill="none" xmlns="http://www.w3.org/2000/svg">
<path d="M33.725 0.401855C27.8874 0.401855 24.3931 1.28801 22.1721 2.39293C21.0601 2.94678 20.2707 3.52832 19.7397 4.1237C19.206 4.71909 18.8696 5.59416 18.8696 5.59416C18.7825 5.81657 18.7245 6.04927 18.6973 6.28647L17.2184 25.2391C17.199 25.3554 17.2379 25.5437 17.2184 25.6711L17.0461 27.5763C17.0299 27.7486 17.0299 27.9219 17.0461 28.0942C17.0461 37.2326 24.5516 44.7095 33.725 44.7095C42.8984 44.7095 50.4039 37.2326 50.4039 28.0942V27.6622C50.4043 27.6336 50.4043 27.6049 50.4039 27.5763L48.7527 6.28647C48.7254 6.04927 48.6675 5.81657 48.5803 5.59416C48.5803 5.59416 48.244 4.71909 47.7102 4.1237C47.1793 3.52555 46.3898 2.94401 45.2779 2.39293C43.0568 1.28524 39.5626 0.401855 33.725 0.401855ZM33.725 44.7095C15.3782 44.7095 0.367188 53.3108 0.367188 61.0646V72.4019H67.0828V61.0646C67.0828 53.6985 53.5117 45.5846 36.4186 44.7954C35.522 44.7364 34.6236 44.7078 33.725 44.7095ZM33.725 5.94032C39.0066 5.94032 41.6447 6.77109 42.7594 7.32493C43.1319 7.51047 43.1764 7.58247 43.282 7.67109L44.4106 21.8634C41.8532 22.0185 38.3673 22.5557 33.725 22.5557C29.0827 22.5557 25.5996 22.0185 23.0394 21.8634L24.168 7.67109C24.2708 7.58247 24.3181 7.51047 24.6906 7.32493C25.8053 6.77109 28.4433 5.94032 33.725 5.94032ZM31.465 8.70955V11.9994H28.1654V16.4994H31.4678V19.7865H35.9822V16.4966H39.2846V11.9994H35.9822V8.70955H31.4678H31.465ZM25.3855 50.9403L32.5102 66.8634H5.92682V61.0646C5.92682 59.0015 13.0154 52.9591 25.3855 50.9403ZM42.0644 50.9403C54.4346 52.9619 61.5232 59.0015 61.5232 61.0646V66.8634H34.9398L42.0644 50.9403Z" fill="#1D957F"/>
</svg>
