<svg width="164" height="163" viewBox="0 0 164 163" fill="none" xmlns="http://www.w3.org/2000/svg">
<g filter="url(#filter0_dd_205_627)">
<mask id="mask0_205_627" style="mask-type:alpha" maskUnits="userSpaceOnUse" x="13" y="4" width="138" height="138">
<circle cx="82.0998" cy="73.0858" r="68.578" fill="#C4C4C4"/>
</mask>
<g mask="url(#mask0_205_627)">
<circle cx="82.0998" cy="73.0858" r="68.578" fill="white"/>
<path d="M42.4214 137.267C42.7097 132.078 46.8421 129.003 48.9563 124.582C51.9355 118.335 46.6499 113.05 53.4731 106.899C60.2964 100.845 56.8367 98.0576 60.873 93.1564C65.0054 88.2552 73.3663 89.6967 73.3663 89.6967H90.4725C90.4725 89.6967 98.8334 88.2552 102.966 93.1564C107.098 98.0576 103.542 100.845 110.366 106.899C117.189 112.953 111.903 118.239 114.883 124.582C116.132 127.177 118.15 129.195 119.592 131.693C126.511 142.937 115.94 157.064 103.831 157.064C103.831 157.064 59.912 157.064 59.8159 157.064C51.6472 159.851 45.7849 158.794 46.9382 151.587C47.8992 146.397 42.1331 142.361 42.4214 137.267Z" fill="#2DBB54"/>
<path d="M82.0155 81.1437L90.2803 79.7982C90.2803 79.7982 90.2803 90.6578 90.2803 98.2499C90.2803 105.554 82.5921 107.283 82.0155 107.476C81.4389 107.38 73.8468 105.65 73.8468 98.346C73.8468 90.7539 73.8468 79.8943 73.8468 79.8943L82.0155 81.1437Z" fill="#F9D3B7"/>
<path d="M82.0155 69.6114L73.7507 68.2659C73.7507 68.2659 73.7507 79.1255 73.7507 86.7176C73.7507 90.3695 75.6728 92.6759 77.5948 94.0214C79.5169 95.3668 81.8233 95.9434 84.2259 95.8473C86.3401 95.7512 89.1271 94.7902 89.992 92.8681C90.5686 91.5227 90.1842 89.4084 90.1842 86.8137C90.1842 79.2216 90.1842 68.362 90.1842 68.362L82.0155 69.6114Z" fill="#F7B7A1"/>
<path d="M97.3919 65.6712C97.3919 65.6712 97.488 64.2296 100.371 63.653C103.254 63.0764 104.311 72.9749 99.0256 74.0321C93.74 75.0892 94.3166 67.7854 97.3919 65.6712Z" fill="#F4C19F"/>
<path d="M70.5794 71.0529C70.5794 71.0529 69.9067 69.7075 67.0236 70.2841C64.1406 70.8607 67.0236 80.3748 72.2132 79.3177C77.4988 78.3567 74.1352 71.8217 70.5794 71.0529Z" fill="#F4C19F"/>
<path d="M88.07 89.9851C96.0465 88.3513 101.236 80.567 99.6023 72.6866L97.3919 61.731C95.7582 53.7545 87.9739 48.5649 80.0935 50.1987C72.117 51.8324 66.9275 59.6167 68.5612 67.4971L70.7716 78.4528C72.3092 86.3332 80.0935 91.6188 88.07 89.9851Z" fill="#F9D3B7"/>
<path d="M72.6936 77.2035C71.8286 72.7827 77.5948 73.071 84.3219 71.7256C91.1452 70.3802 96.3347 67.8815 97.1996 72.3022C98.0646 76.7229 91.7218 73.3594 84.8986 74.8009C78.2675 76.1463 73.6546 81.7203 72.6936 77.2035Z" fill="#F7B7A1"/>
<path d="M63.2755 66.8244C67.1196 61.6349 64.7171 62.0193 65.2937 56.8297C65.8703 51.6402 71.4442 47.2195 71.4442 47.2195C71.4442 47.2195 66.0625 42.7988 69.9066 39.6274C73.7507 36.3599 77.5948 37.2249 77.5948 37.2249C77.5948 37.2249 81.1506 30.6899 87.8778 34.6301C93.6439 37.9937 90.5686 42.5105 88.2622 44.5286C90.2803 45.2975 94.5088 47.2195 96.4309 50.5831C99.0256 55.0999 96.8153 56.0609 102.293 59.3284C107.771 62.692 96.7192 67.9776 99.6983 72.0139C102.678 76.0502 100.659 78.3567 100.659 78.3567C100.659 78.3567 101.332 74.9931 98.2568 73.5515C95.1815 72.11 94.0283 69.7075 96.7192 64.7101C99.3139 59.8089 80.9584 64.3257 75.9611 54.235C75.2883 65.479 66.3508 66.0556 70.6754 69.6114C75 73.1671 74.9039 75.858 72.5975 78.3567C70.291 80.8553 72.2131 83.7384 72.2131 83.7384C72.2131 83.7384 69.4261 82.393 70.6754 77.4917C71.7326 72.6866 59.4315 72.11 63.2755 66.8244Z" fill="#081E29"/>
<path d="M91.8179 66.3438C91.8179 66.3438 89.1271 67.2088 86.3401 65.4789" stroke="#081E29" stroke-width="1.08769" stroke-miterlimit="10" stroke-linecap="round" stroke-linejoin="round"/>
<path d="M75.6727 69.6113C75.6727 69.6113 78.4597 69.323 80.3817 66.7282" stroke="#081E29" stroke-width="1.08769" stroke-miterlimit="10" stroke-linecap="round" stroke-linejoin="round"/>
<path d="M79.9012 71.7256C79.9973 72.3022 79.6129 72.8788 79.0363 73.071C78.4597 73.1672 77.8831 72.7827 77.6909 72.2061C77.5948 71.6295 77.9792 71.0529 78.5558 70.8607C79.2285 70.7646 79.8051 71.149 79.9012 71.7256Z" fill="#081E29"/>
<path d="M90.953 69.5152C91.0491 70.0918 90.6647 70.6685 90.0881 70.8607C89.5114 70.9568 88.9348 70.5724 88.7426 69.9957C88.6465 69.4191 89.0309 68.8425 89.6075 68.6503C90.1842 68.5542 90.7608 68.9386 90.953 69.5152Z" fill="#081E29"/>
<path d="M84.7065 80.0865C84.6104 79.7021 84.6104 79.3177 84.6104 78.9333C84.6104 77.4917 86.3402 77.1073 86.9168 78.4528C87.109 78.8372 87.2051 79.1255 87.3012 79.5099C87.4934 80.0865 87.4934 80.6631 87.3973 81.0475C87.2051 82.2008 85.8597 82.4891 85.187 81.528C84.9948 81.1436 84.8026 80.6631 84.7065 80.0865Z" fill="#081E29"/>
<path d="M83.7454 68.6504C83.7454 68.6504 87.6856 74.7048 85.0908 75.1853" stroke="#081E29" stroke-width="0.543843" stroke-miterlimit="10" stroke-linecap="round" stroke-linejoin="round"/>
<path d="M94.0284 114.299L90.857 95.9434C90.857 95.9434 88.4544 94.3096 88.6466 89.8889C88.8388 85.4682 87.4934 83.4501 86.2441 81.9124C85.283 80.9514 87.0129 79.2216 89.9921 85.8526C89.031 80.2787 86.3402 79.4138 86.6285 78.7411C87.0129 78.0683 89.6076 78.9333 91.2414 83.9306C90.5687 78.9333 87.4934 77.2995 87.9739 76.5307C88.6466 75.4736 92.779 79.3177 92.8751 84.4111C93.74 79.3177 90.1843 77.2034 90.7609 76.0502C91.3375 74.897 95.6621 80.0865 94.8933 87.2942C96.1426 84.9877 94.5089 81.8163 95.566 81.4319C96.6231 81.0475 98.6413 88.3513 94.8933 95.1746C97.1036 101.806 101.524 111.896 101.524 111.896L94.0284 114.299Z" fill="#F9C4A0"/>
<path d="M110.173 155.815C110.173 155.815 118.631 151.779 115.844 140.247C113.249 129.195 114.114 110.935 102.293 106.515C101.428 106.13 100.371 106.322 99.6022 106.899C97.3919 108.533 94.701 108.917 93.0673 109.013C91.9141 109.013 90.953 109.782 90.5686 110.839C89.5115 113.626 87.9739 119.585 89.7037 128.138C92.2024 140.439 88.4544 154.47 97.1997 156.776C105.849 159.083 110.173 155.815 110.173 155.815Z" fill="#45E471"/>
<path d="M74.5195 85.6604C74.5195 85.6604 79.9974 92.0032 88.07 89.985" stroke="#081E29" stroke-width="0.543843" stroke-miterlimit="10" stroke-linecap="round" stroke-linejoin="round"/>
</g>
</g>
<defs>
<filter id="filter0_dd_205_627" x="0.899967" y="0.300498" width="162.4" height="162.4" filterUnits="userSpaceOnUse" color-interpolation-filters="sRGB">
<feFlood flood-opacity="0" result="BackgroundImageFix"/>
<feColorMatrix in="SourceAlpha" type="matrix" values="0 0 0 0 0 0 0 0 0 0 0 0 0 0 0 0 0 0 127 0" result="hardAlpha"/>
<feOffset dy="8.41451"/>
<feGaussianBlur stdDeviation="6.31088"/>
<feColorMatrix type="matrix" values="0 0 0 0 0.196487 0 0 0 0 0.196487 0 0 0 0 0.279476 0 0 0 0.08 0"/>
<feBlend mode="multiply" in2="BackgroundImageFix" result="effect1_dropShadow_205_627"/>
<feColorMatrix in="SourceAlpha" type="matrix" values="0 0 0 0 0 0 0 0 0 0 0 0 0 0 0 0 0 0 127 0" result="hardAlpha"/>
<feOffset dy="6.31088"/>
<feGaussianBlur stdDeviation="3.15544"/>
<feColorMatrix type="matrix" values="0 0 0 0 0.196487 0 0 0 0 0.196487 0 0 0 0 0.279476 0 0 0 0.08 0"/>
<feBlend mode="multiply" in2="effect1_dropShadow_205_627" result="effect2_dropShadow_205_627"/>
<feBlend mode="normal" in="SourceGraphic" in2="effect2_dropShadow_205_627" result="shape"/>
</filter>
</defs>
</svg>
