<svg width="65" height="73" viewBox="0 0 65 73" fill="none" xmlns="http://www.w3.org/2000/svg">
<path d="M64.6529 25.8548H43.2243V72.6548H36.0815V51.0548H28.9386V72.6548H21.7958V25.8548H0.367188V18.6548H64.6529V25.8548ZM32.51 0.654785C34.4044 0.654785 36.2213 1.41335 37.5608 2.76362C38.9004 4.11388 39.6529 5.94523 39.6529 7.85478C39.6529 9.76434 38.9004 11.5957 37.5608 12.946C36.2213 14.2962 34.4044 15.0548 32.51 15.0548C30.6156 15.0548 28.7988 14.2962 27.4593 12.946C26.1197 11.5957 25.3672 9.76434 25.3672 7.85478C25.3672 3.85878 28.5458 0.654785 32.51 0.654785Z" fill="#1D957F"/>
</svg>
