<svg width="143" height="40" viewBox="0 0 143 40" fill="none" xmlns="http://www.w3.org/2000/svg">
<g clip-path="url(#clip0_205_108)">
<path d="M8.16918 26.6667C11.3523 31.675 18.2972 33.901 23.8175 31.6973C29.3378 29.4936 32.8102 23.083 31.6528 17.251C30.7846 12.8437 27.4457 9.01506 23.2165 7.47917C18.6533 5.80972 12.2204 6.5888 9.4157 10.8626C6.25487 15.6261 4.91932 21.5693 8.16918 26.6667Z" fill="#1D957F"/>
<path d="M31.6528 17.2733C31.0295 14.1347 29.1597 11.2855 26.5999 9.34894C27.0896 10.3506 27.468 11.4191 27.6906 12.5098C28.8481 18.3417 25.3756 24.7524 19.8553 26.9561C15.7819 28.581 10.9516 27.8019 7.41235 25.2644C7.63495 25.7541 7.90206 26.2215 8.19143 26.689C11.3745 31.6973 18.3194 33.9232 23.8397 31.7196C29.3155 29.4936 32.788 23.1052 31.6528 17.2733Z" fill="#25602E"/>
<path d="M23.684 9.83863C25.6873 11.3523 29.4936 4.11798 29.4936 4.11798L30.8515 5.14191C30.8515 5.14191 24.975 10.818 27.0006 12.3317" fill="#1D957F"/>
<path d="M31.6528 5.52034C32.0757 3.67282 28.8704 1.89208 28.4475 3.91767C28.0468 5.87649 31.1631 7.65724 31.6528 5.52034Z" fill="#1D957F"/>
<path d="M30.1168 3.60606C29.7607 3.0941 28.6032 3.47251 29.0039 4.02899C29.4045 4.56322 30.5175 4.18481 30.1168 3.60606Z" fill="#25602E"/>
<path d="M31.5192 4.42966C31.5192 4.54095 31.497 4.65225 31.4747 4.76355C31.074 6.45525 29.0484 5.67618 28.4252 4.31836C28.4697 6.0991 31.2076 7.5237 31.6528 5.52036C31.7418 5.14195 31.675 4.76355 31.5192 4.42966Z" fill="#25602E"/>
<path d="M30.1614 18.8537C29.9388 21.369 38.0857 20.768 38.0857 20.768L37.9299 22.4597C37.9299 22.4597 30.0056 20.4786 29.783 22.9939" fill="#25602E"/>
<path d="M38.0412 23.35C39.8219 22.749 39.6661 19.0763 37.7073 19.7886C35.8375 20.4786 35.9711 24.0623 38.0412 23.35Z" fill="#25602E"/>
<path d="M38.8425 21.0128C39.0873 20.4341 38.1524 19.6773 37.8853 20.3005C37.6627 20.9238 38.5531 21.6806 38.8425 21.0128Z" fill="#1D957F"/>
<path d="M38.8871 22.66C38.798 22.7268 38.6868 22.7713 38.5755 22.7936C36.9283 23.3501 36.5053 21.2132 37.3512 19.9666C35.8598 20.9461 36.1047 24.0178 38.0412 23.3501C38.3974 23.2165 38.6868 22.9717 38.8871 22.66Z" fill="#1D957F"/>
<path d="M26.5109 27.4903C24.7301 28.3361 28.4029 33.5893 28.4029 33.5893L27.2009 34.1681C27.2009 34.1681 25.3534 28.0467 23.5726 28.9149" fill="#25602E"/>
<path d="M26.6667 34.591C27.8019 35.5481 30.1837 33.9677 28.9372 32.9438C27.7129 31.9422 25.3534 33.478 26.6667 34.591Z" fill="#25602E"/>
<path d="M28.5587 34.1904C29.0484 34.1236 29.182 33.1887 28.6477 33.2777C28.1358 33.3445 28.0022 34.2571 28.5587 34.1904Z" fill="#1D957F"/>
<path d="M27.468 34.8804C27.4013 34.8358 27.3122 34.7913 27.2454 34.7245C26.1992 33.8564 27.468 32.699 28.6478 32.7657C27.379 32.1425 25.4202 33.5448 26.6444 34.591C26.8893 34.7691 27.1787 34.8581 27.468 34.8804Z" fill="#1D957F"/>
<path d="M21.7919 30.6289C19.2766 30.6957 20.7902 38.7313 20.7902 38.7313L19.0985 38.7758C19.0985 38.7758 20.1447 30.6734 17.6294 30.7624" fill="#25602E"/>
<path d="M18.2304 38.9761C19.054 40.6901 22.6823 40.0891 21.7252 38.2416C20.8348 36.4608 17.2956 36.995 18.2304 38.9761Z" fill="#25602E"/>
<path d="M19.0317 39.7552C18.9649 39.6661 18.8982 39.5771 18.8536 39.4658C18.0968 37.9077 20.1892 37.2176 21.5248 37.9077C20.3673 36.5276 17.3623 37.1286 18.2304 38.9761C18.4085 39.3323 18.6978 39.5771 19.0317 39.7552Z" fill="#1D957F"/>
<path d="M13.7117 9.50478C16.049 8.54762 11.7529 1.58046 11.7529 1.58046L13.3111 0.934937C13.3111 0.934937 15.2254 8.88151 17.5403 7.9021" fill="#1D957F"/>
<path d="M14.0679 0.445212C12.6878 -0.868088 9.52701 0.979435 11.0406 2.38177C12.532 3.73959 15.6483 1.95885 14.0679 0.445212Z" fill="#1D957F"/>
<path d="M11.6194 0.801362C10.9961 0.84588 10.7513 2.02562 11.419 1.95885C12.0868 1.91433 12.3317 0.756843 11.6194 0.801362Z" fill="#25602E"/>
<path d="M13.044 0C13.133 0.066778 13.222 0.133556 13.3111 0.222593C14.5799 1.4246 12.8659 2.78242 11.3745 2.6266C12.9327 3.49471 15.537 1.86978 14.0679 0.445187C13.7785 0.178075 13.4224 0.0445187 13.044 0Z" fill="#25602E"/>
<path d="M8.32502 18.0078C9.17087 15.6261 1.13525 14.2015 1.13525 14.2015L1.69174 12.5988C1.69174 12.5988 8.90376 16.4719 9.70509 14.0679" fill="#1D957F"/>
<path d="M1.80301 11.7084C-0.0890344 11.8643 -0.823592 15.4703 1.24652 15.2477C3.2276 15.0473 3.98442 11.5304 1.80301 11.7084Z" fill="#1D957F"/>
<path d="M0.44515 13.7785C0.066742 14.2682 0.77904 15.2477 1.17971 14.6912C1.58038 14.157 0.890337 13.1998 0.44515 13.7785Z" fill="#25602E"/>
<path d="M0.801392 12.1759C0.912688 12.1536 1.02398 12.1314 1.13528 12.1091C2.87151 11.9756 2.76021 14.1347 1.64725 15.1586C3.33895 14.5799 3.85092 11.5526 1.82532 11.7084C1.40239 11.753 1.0685 11.931 0.801392 12.1759Z" fill="#25602E"/>
<path d="M12.2649 28.1358C10.7958 26.088 5.0306 31.8754 5.0306 31.8754L4.02893 30.4953C4.02893 30.4953 11.3077 26.778 9.81635 24.7524" fill="#25602E"/>
<path d="M3.38344 29.9165C2.42629 31.5637 4.96386 34.2126 5.96552 32.3873C6.92268 30.6288 4.47415 28.0245 3.38344 29.9165Z" fill="#25602E"/>
<path d="M4.296 32.2093C4.49634 32.8103 5.69834 32.7658 5.47575 32.1202C5.25315 31.497 4.07341 31.5192 4.296 32.2093Z" fill="#1D957F"/>
<path d="M3.18305 31.0072C3.20531 30.8959 3.24983 30.8069 3.3166 30.6956C4.18472 29.182 5.92095 30.5175 6.09902 32.0312C6.58873 30.3172 4.38505 28.1581 3.36112 29.9165C3.18305 30.2504 3.13853 30.6288 3.18305 31.0072Z" fill="#1D957F"/>
<path d="M19.5659 8.10241C21.4357 8.52533 21.7919 2.29272 21.7919 2.29272L23.0606 2.55984C23.0606 2.55984 20.7902 8.36952 22.66 8.77019" fill="#1D957F"/>
<path d="M23.7506 2.58213C23.4613 1.15753 20.6789 0.934941 21.0127 2.47083C21.3689 3.98447 24.0845 4.22932 23.7506 2.58213Z" fill="#1D957F"/>
<path d="M22.059 1.73625C21.6583 1.4914 20.9683 2.13692 21.4357 2.38177C21.8809 2.62663 22.5487 2.02562 22.059 1.73625Z" fill="#25602E"/>
<path d="M23.3056 1.86981C23.3501 1.93659 23.3723 2.02563 23.3946 2.11466C23.6617 3.4057 21.9923 3.517 21.1241 2.76018C21.7251 3.98445 24.0624 4.09574 23.7507 2.58211C23.7062 2.29274 23.5281 2.04789 23.3056 1.86981Z" fill="#25602E"/>
<path d="M28.3361 13.8453C29.3822 15.448 33.9899 11.241 33.9899 11.241L34.7022 12.3317C34.7022 12.3317 29.0261 14.9138 30.0945 16.5164" fill="#25602E"/>
<path d="M35.192 12.7992C35.9711 11.5749 34.1236 9.46025 33.3 10.8181C32.4987 12.1314 34.2794 14.2015 35.192 12.7992Z" fill="#25602E"/>
<path d="M34.5688 11.0184C34.4352 10.5509 33.5226 10.5509 33.6561 11.0406C33.8119 11.5303 34.7246 11.5526 34.5688 11.0184Z" fill="#1D957F"/>
<path d="M35.37 11.9755C35.3477 12.0646 35.3032 12.1313 35.2587 12.1981C34.5464 13.3111 33.2776 12.2426 33.1886 11.0851C32.7657 12.3762 34.3683 14.0902 35.1919 12.7769C35.3477 12.5543 35.3923 12.2649 35.37 11.9755Z" fill="#1D957F"/>
<path d="M16.5832 30.7624C15.0028 29.6717 12.354 35.3256 12.354 35.3256L11.2855 34.591C11.2855 34.591 15.5593 30.0501 13.9566 28.9817" fill="#25602E"/>
<path d="M10.6622 34.3239C10.3951 35.7485 12.9104 36.995 13.1552 35.4369C13.4001 33.9232 10.9515 32.6767 10.6622 34.3239Z" fill="#25602E"/>
<path d="M11.9087 35.7263C12.1981 36.1047 13.0662 35.7708 12.7323 35.3701C12.4207 34.9694 11.5748 35.3033 11.9087 35.7263Z" fill="#1D957F"/>
<path d="M10.7958 35.1475C10.7958 35.0585 10.7958 34.9694 10.818 34.9027C11.0629 33.5894 12.6433 34.1013 13.1553 35.1253C13.0662 33.7674 10.9293 32.788 10.64 34.3239C10.5954 34.6133 10.6622 34.9027 10.7958 35.1475Z" fill="#1D957F"/>
<path d="M29.2043 25.0417C28.3807 26.778 34.3684 28.5142 34.3684 28.5142L33.8119 29.694C33.8119 29.694 28.67 26.177 27.8464 27.9132" fill="#25602E"/>
<path d="M33.6561 30.3617C35.1029 30.4063 35.9488 27.7351 34.3684 27.7129C32.8325 27.7129 31.9866 30.3172 33.6561 30.3617Z" fill="#25602E"/>
<path d="M34.8582 28.8926C35.1921 28.5365 34.7246 27.7574 34.3684 28.1358C34.0123 28.5142 34.4575 29.2933 34.8582 28.8926Z" fill="#1D957F"/>
<path d="M34.4574 30.0724C34.3684 30.0947 34.2793 30.0946 34.2125 30.0946C32.877 30.0501 33.1441 28.4252 34.079 27.7352C32.7434 28.0468 32.1202 30.295 33.6783 30.3395C33.9454 30.3618 34.2125 30.2505 34.4574 30.0724Z" fill="#1D957F"/>
<path d="M9.57156 12.7991C10.9071 11.4191 5.78748 7.85756 5.78748 7.85756L6.67785 6.92267C6.67785 6.92267 10.4397 11.9088 11.7752 10.5064" fill="#1D957F"/>
<path d="M7.05627 6.34396C5.69845 5.85426 4.029 8.10245 5.54263 8.61441C6.98949 9.10412 8.61442 6.92271 7.05627 6.34396Z" fill="#1D957F"/>
<path d="M5.45355 7.3456C5.03063 7.5682 5.2087 8.48083 5.67615 8.21372C6.09907 7.96886 5.94326 7.07849 5.45355 7.3456Z" fill="#25602E"/>
<path d="M6.21032 6.34391C6.29936 6.34391 6.36613 6.36617 6.45517 6.41069C7.70169 6.85587 6.92262 8.34725 5.83191 8.68114C7.18973 8.81469 8.52529 6.87813 7.05617 6.34391C6.7668 6.23261 6.47743 6.25487 6.21032 6.34391Z" fill="#25602E"/>
<path d="M8.61438 23.7285C8.36952 21.8142 2.38177 23.5726 2.38177 23.5726L2.22595 22.2816C2.22595 22.2816 8.45856 22.4819 8.21371 20.5676" fill="#1D957F"/>
<path d="M2.02564 21.6583C0.779121 22.4152 1.51368 25.1085 2.84924 24.2627C4.14028 23.4391 3.45024 20.7902 2.02564 21.6583Z" fill="#1D957F"/>
<path d="M1.78077 23.5281C1.69173 23.9956 2.51533 24.4185 2.60436 23.9065C2.6934 23.3946 1.89206 22.9939 1.78077 23.5281Z" fill="#25602E"/>
<path d="M1.49133 22.3039C1.55811 22.2371 1.62489 22.1926 1.69167 22.1481C2.82689 21.458 3.49467 22.9939 3.07175 24.0624C4.0289 23.0829 3.33886 20.8348 2.0033 21.6361C1.75844 21.8142 1.60263 22.0368 1.49133 22.3039Z" fill="#25602E"/>
<path d="M11.3523 14.246C11.1074 14.2015 10.8626 14.1569 10.6177 14.246C10.3728 14.335 10.217 14.5576 10.128 14.8247C10.0612 15.0696 10.0612 15.3367 10.1057 15.5815C10.2838 16.5387 10.9961 17.4068 11.9087 17.7184C12.8659 18.0746 14.3127 17.4513 13.9343 16.2271C13.645 15.2477 12.3094 14.4686 11.3523 14.246Z" fill="#25602E"/>
<path d="M25.4646 19.6105C25.6204 19.3211 25.7317 18.9872 25.7095 18.6756C25.665 18.3417 25.4424 18.0301 25.153 17.852C24.8636 17.6739 24.5075 17.5849 24.1736 17.5626C22.8603 17.4513 21.5247 18.0746 20.7902 19.1653C20.0111 20.3005 20.3227 22.3706 22.0144 22.2816C23.4168 22.2148 24.8636 20.768 25.4646 19.6105Z" fill="#25602E"/>
<path d="M12.1981 20.9683C11.8197 20.8793 11.4413 20.8125 11.0852 20.946C10.7068 21.0796 10.4396 21.4135 10.3061 21.7919C10.1725 22.1703 10.1725 22.571 10.2171 22.9716C10.4174 24.4853 11.4858 25.8431 12.8882 26.4218C14.3573 27.0228 16.6277 26.1547 16.1158 24.2404C15.6706 22.6377 13.6672 21.369 12.1981 20.9683Z" fill="#25602E"/>
<path d="M15.1808 18.8759C15.025 19.0095 14.8692 19.1653 14.8024 19.3434C14.7356 19.5437 14.8024 19.7886 14.9137 19.9666C15.025 20.1447 15.2031 20.2783 15.4034 20.3896C16.1157 20.7902 17.0506 20.768 17.7406 20.3451C18.4752 19.8999 18.8313 18.6311 17.8297 18.2527C17.0061 17.9188 15.8041 18.364 15.1808 18.8759Z" fill="#25602E"/>
<path d="M17.7852 25.3756C17.8075 25.5537 17.8743 25.7541 17.9856 25.8876C18.1191 26.0212 18.3194 26.0879 18.5198 26.0657C18.7201 26.0434 18.8982 25.9767 19.0763 25.8654C19.7218 25.4647 20.1224 24.7301 20.1002 23.9733C20.0779 23.1942 19.2321 22.3484 18.4753 22.9494C17.852 23.4836 17.6739 24.6411 17.7852 25.3756Z" fill="#25602E"/>
<path d="M16.3383 9.88318C15.8486 9.97221 15.3589 10.128 15.025 10.5287C14.6689 10.9294 14.5576 11.5526 14.6466 12.1314C14.7357 12.7101 14.9805 13.2666 15.2922 13.7563C16.4719 15.6483 18.542 16.8281 20.5231 16.739C22.5932 16.65 24.6633 14.1124 22.8826 11.8643C21.3912 10.039 18.2972 9.52703 16.3383 9.88318Z" fill="#25602E"/>
<path d="M9.54932 26.5109C10.2171 26.8225 10.9294 27.0896 11.6417 27.29L9.81643 24.7747C10.1948 25.2866 10.0168 25.8876 9.54932 26.5109Z" fill="#1D957F"/>
<path d="M27.1119 9.77185C26.9561 10.217 26.7557 10.64 26.6889 11.0852C26.6444 11.3077 26.6444 11.5303 26.6667 11.7529C26.6889 11.8642 26.7335 11.9755 26.778 12.0646C26.8225 12.1536 26.9115 12.2426 27.0006 12.3317C26.8893 12.2649 26.8002 12.1981 26.7335 12.1091C26.6667 12.02 26.5999 11.9087 26.5554 11.7752C26.5109 11.6639 26.5109 11.5303 26.5109 11.419C26.5109 11.3077 26.5109 11.1742 26.5331 11.0629C26.5776 10.818 26.6444 10.5954 26.7557 10.3951C26.867 10.1725 26.9783 9.97218 27.1119 9.77185Z" fill="#25602E"/>
<path d="M23.6838 9.83867C23.8842 9.94997 24.1068 10.0167 24.3294 9.99449C24.552 9.97223 24.7745 9.90545 24.9749 9.79415C25.1752 9.68286 25.3755 9.57156 25.5536 9.438C25.7317 9.28219 25.9098 9.14863 26.1101 9.01508C25.9543 9.19315 25.7985 9.37122 25.6204 9.52704C25.4423 9.68286 25.242 9.81641 25.0417 9.92771C24.8191 10.039 24.5965 10.1058 24.3516 10.1058C24.2181 10.1058 24.1068 10.0835 23.9955 10.039C23.8619 9.99449 23.7729 9.92771 23.6838 9.83867Z" fill="#25602E"/>
<path d="M31.6527 21.7697C31.4524 21.8142 31.252 21.8809 31.0739 21.9255C30.8736 21.9922 30.6955 22.0368 30.5175 22.1258C30.3394 22.2148 30.1836 22.3261 30.05 22.4597C29.9165 22.5932 29.8274 22.7713 29.7829 22.9717C29.7606 22.7713 29.8274 22.5487 29.961 22.3707C30.0945 22.1926 30.2726 22.059 30.4507 21.97C30.8291 21.8364 31.252 21.7697 31.6527 21.7697Z" fill="#25602E"/>
<path d="M30.1613 18.8537C30.1613 19.0763 30.2281 19.2543 30.3394 19.4324C30.4507 19.5882 30.6065 19.744 30.7623 19.8553C30.9181 19.9666 31.1184 20.0779 31.2965 20.167C31.4746 20.256 31.6749 20.345 31.8753 20.4341C31.6749 20.4118 31.4523 20.3673 31.252 20.2783C31.0517 20.2115 30.8513 20.1224 30.6733 19.9889C30.4952 19.8553 30.3394 19.6995 30.2281 19.4992C30.139 19.2989 30.1168 19.054 30.1613 18.8537Z" fill="#25602E"/>
<path d="M15.6927 6.96722C15.9599 7.23434 16.2047 7.52371 16.5163 7.72404C16.6722 7.83534 16.828 7.90211 17.006 7.94663C17.1841 7.99115 17.3622 7.99115 17.5403 7.92437C17.3845 8.03567 17.1841 8.08019 16.9838 8.05793C16.7835 8.03567 16.6054 7.94663 16.4273 7.8576C16.1157 7.61274 15.8708 7.30111 15.6927 6.96722Z" fill="#25602E"/>
<path d="M13.7117 9.50476C13.8897 9.39346 14.0456 9.25991 14.1346 9.08183C14.2236 8.90376 14.2904 8.72568 14.3127 8.52535C14.3349 8.32502 14.3349 8.12468 14.3349 7.92435C14.3349 7.72401 14.3127 7.52368 14.3127 7.30109C14.4462 7.70175 14.513 8.10242 14.4685 8.54761C14.4462 8.74794 14.3795 8.97054 14.2459 9.14861C14.1123 9.32668 13.912 9.46024 13.7117 9.50476Z" fill="#25602E"/>
<path d="M7.3678 14.7802C7.59039 14.7802 7.81298 14.8025 8.03558 14.8025C8.25817 14.8025 8.48076 14.8025 8.6811 14.758C8.88143 14.7357 9.10403 14.6689 9.2821 14.5576C9.46018 14.4463 9.61599 14.2905 9.70503 14.0902C9.66051 14.3128 9.52695 14.5131 9.34888 14.6467C9.1708 14.7802 8.92595 14.8693 8.70336 14.8915C8.48076 14.936 8.25817 14.936 8.03558 14.9138C7.81298 14.8915 7.59039 14.847 7.3678 14.7802Z" fill="#25602E"/>
<path d="M8.32495 18.0078C8.36947 17.7853 8.34721 17.5627 8.28043 17.3846C8.21365 17.1842 8.08009 17.0062 7.94654 16.8504C7.81298 16.6945 7.63491 16.561 7.45683 16.4274C7.27876 16.2939 7.10068 16.1603 6.92261 16.0268C7.12294 16.1158 7.32328 16.2048 7.52361 16.3384C7.72394 16.4497 7.87976 16.6055 8.03557 16.7613C8.19139 16.9394 8.32495 17.1175 8.36947 17.3623C8.4585 17.5627 8.43624 17.8075 8.32495 18.0078Z" fill="#25602E"/>
<path d="M12.2649 28.1358C12.0868 27.9355 11.8642 27.8242 11.6194 27.7797C11.3745 27.7352 11.1297 27.7797 10.8848 27.8242C10.3951 27.9355 9.92765 28.1358 9.46021 28.3362C9.88313 28.0468 10.3506 27.8019 10.8625 27.6684C11.1074 27.6239 11.3968 27.5793 11.6639 27.6461C11.9087 27.7352 12.1536 27.9132 12.2649 28.1358Z" fill="#25602E"/>
<path d="M21.9476 7.12305C21.9922 7.45694 22.0144 7.79083 22.1035 8.0802C22.148 8.23601 22.2147 8.36957 22.3038 8.50312C22.3928 8.63668 22.5264 8.72572 22.6822 8.7925C22.5041 8.7925 22.3483 8.70346 22.2147 8.59216C22.0812 8.45861 22.0144 8.30279 21.9476 8.14698C21.9031 7.9689 21.8809 7.81309 21.8809 7.63501C21.8809 7.43468 21.9031 7.27886 21.9476 7.12305Z" fill="#25602E"/>
<path d="M19.5659 8.10243C19.7217 8.10243 19.8775 8.08017 20.0111 8.01339C20.1447 7.94662 20.256 7.83532 20.3673 7.72402C20.5676 7.50143 20.7234 7.21206 20.9237 6.94495C20.8792 7.10076 20.8347 7.25658 20.7679 7.41239C20.7011 7.56821 20.6121 7.70176 20.5008 7.83532C20.3895 7.96887 20.256 8.08017 20.0779 8.12469C19.8998 8.16921 19.7217 8.16921 19.5659 8.10243Z" fill="#25602E"/>
<path d="M30.8291 14.6912C30.6065 14.9806 30.3839 15.2254 30.2058 15.537C30.1168 15.6929 30.05 15.8487 30.0277 16.0045C30.0055 16.1603 30.0277 16.3384 30.0945 16.4942C29.961 16.3606 29.8942 16.1826 29.9164 15.9822C29.9164 15.7819 29.9832 15.6038 30.0723 15.448C30.1613 15.2922 30.2726 15.1364 30.4062 15.0251C30.5397 14.8915 30.6733 14.7802 30.8291 14.6912Z" fill="#25602E"/>
<path d="M28.3361 13.8453C28.4696 13.9789 28.6254 14.0679 28.8035 14.1125C28.9816 14.157 29.1597 14.1347 29.3377 14.1125C29.6939 14.0679 30.05 13.9344 30.4062 13.8231C30.0945 14.0457 29.7384 14.2015 29.36 14.2683C29.1597 14.2905 28.9593 14.2905 28.7812 14.2238C28.5809 14.157 28.4251 14.0234 28.3361 13.8453Z" fill="#25602E"/>
<path d="M13.734 31.3634C13.8898 30.9405 14.0902 30.5621 14.1792 30.1392C14.2237 29.9388 14.2682 29.7163 14.246 29.5159C14.2237 29.3156 14.1347 29.1153 13.9566 28.9594C14.1569 29.0485 14.3128 29.2711 14.3573 29.4937C14.4018 29.7163 14.3795 29.9611 14.3128 30.1837C14.2015 30.6289 14.0011 31.0073 13.734 31.3634Z" fill="#25602E"/>
<path d="M16.5831 30.7624C16.4051 30.6734 16.2047 30.6511 16.0044 30.6956C15.8263 30.7401 15.6482 30.8292 15.4702 30.9405C15.1363 31.1631 14.8469 31.4524 14.5353 31.7195C14.7579 31.3634 15.025 31.0518 15.3811 30.8069C15.5592 30.6956 15.7595 30.5843 15.9821 30.5621C16.2047 30.5398 16.4273 30.6066 16.5831 30.7624Z" fill="#25602E"/>
<path d="M25.7985 30.6734C25.5092 30.2505 25.2198 29.8276 24.8859 29.4491C24.7078 29.2711 24.5297 29.093 24.3071 28.9817C24.0846 28.8704 23.8397 28.8259 23.5948 28.9149C23.7061 28.8481 23.8397 28.8036 23.9733 28.8036C24.04 28.8036 24.1068 28.8036 24.1736 28.8259C24.2404 28.8481 24.3071 28.8704 24.3739 28.8927C24.6188 29.004 24.8191 29.182 24.9972 29.3824C25.3533 29.7385 25.5982 30.206 25.7985 30.6734Z" fill="#25602E"/>
<path d="M26.5108 27.4903C26.3105 27.6239 26.1769 27.8464 26.1324 28.069C26.0879 28.2916 26.1101 28.5365 26.1324 28.7813C26.1992 29.2488 26.355 29.7162 26.4885 30.2059C26.2437 29.783 26.0656 29.3156 25.9766 28.8036C25.9321 28.5587 25.9321 28.2916 25.9988 28.0468C26.0879 27.7797 26.2882 27.5571 26.5108 27.4903Z" fill="#25602E"/>
<path d="M19.0985 32.5877C19.0317 32.3874 18.9427 32.187 18.8759 31.9867C18.7869 31.7863 18.7201 31.6083 18.6088 31.4302C18.4975 31.2521 18.364 31.0963 18.2081 30.985C18.0523 30.8737 17.852 30.7847 17.6294 30.7624C17.8297 30.7179 18.0746 30.7624 18.2527 30.8737C18.453 30.985 18.5865 31.1631 18.7201 31.3412C18.9427 31.7196 19.054 32.1648 19.0985 32.5877Z" fill="#25602E"/>
<path d="M21.7918 30.6289C21.5914 30.6734 21.3911 30.7402 21.2353 30.8737C21.0795 31.0073 20.9682 31.1631 20.8791 31.3412C20.7901 31.5193 20.7011 31.7196 20.6343 31.8977C20.5675 32.098 20.5007 32.2983 20.434 32.4987C20.434 32.2983 20.4562 32.0757 20.5007 31.8754C20.5453 31.6751 20.612 31.4747 20.7233 31.2744C20.8346 31.0741 20.9682 30.896 21.1463 30.7847C21.3466 30.6511 21.5914 30.6066 21.7918 30.6289Z" fill="#25602E"/>
<path d="M29.1819 27.468C28.9148 27.4903 28.6699 27.4903 28.4473 27.5348C28.336 27.5571 28.2247 27.6016 28.1134 27.6684C28.0021 27.7352 27.9131 27.8242 27.8463 27.9132C27.8686 27.7797 27.9354 27.6684 28.0466 27.5793C28.1579 27.4903 28.2692 27.4235 28.4028 27.4013C28.5364 27.379 28.6699 27.3567 28.8035 27.379C28.937 27.379 29.0706 27.4235 29.1819 27.468Z" fill="#25602E"/>
<path d="M29.2042 25.0417C29.1597 25.1753 29.1597 25.3311 29.182 25.4424C29.2042 25.576 29.2488 25.6873 29.3378 25.8208C29.4713 26.0657 29.6717 26.266 29.8498 26.4886C29.7162 26.4218 29.6049 26.3328 29.4936 26.2438C29.3823 26.1547 29.2933 26.0434 29.2042 25.9099C29.1375 25.7763 29.0707 25.6205 29.0707 25.4869C29.0707 25.3089 29.1152 25.153 29.2042 25.0417Z" fill="#25602E"/>
<path d="M9.88306 10.217C10.1947 10.3506 10.5063 10.5287 10.8179 10.6177C10.9738 10.6622 11.1296 10.6845 11.3077 10.6845C11.4635 10.6622 11.6193 10.6177 11.7751 10.5064C11.6861 10.6622 11.508 10.7513 11.3299 10.7958C11.1518 10.8403 10.9515 10.818 10.7957 10.7513C10.6176 10.7067 10.4618 10.6177 10.306 10.5287C10.1502 10.4396 10.0166 10.3283 9.88306 10.217Z" fill="#25602E"/>
<path d="M9.57143 12.7992C9.66047 12.6656 9.70499 12.5098 9.72725 12.3762C9.74951 12.2204 9.72725 12.0869 9.68273 11.931C9.59369 11.6417 9.43788 11.3523 9.30432 11.0629C9.41562 11.1742 9.52691 11.3078 9.61595 11.4413C9.70499 11.5749 9.77177 11.7307 9.81629 11.8865C9.8608 12.0423 9.88306 12.2204 9.83854 12.3985C9.79403 12.5543 9.70499 12.6879 9.57143 12.7992Z" fill="#25602E"/>
<path d="M6.41064 21.97C6.78905 21.8142 7.18972 21.6806 7.54587 21.5025C7.72395 21.4135 7.87976 21.3022 8.01332 21.1464C8.14687 20.9906 8.21365 20.8125 8.21365 20.5899C8.28043 20.7902 8.23591 21.0351 8.10235 21.2132C7.9688 21.3912 7.79072 21.5248 7.61265 21.6361C7.2565 21.8364 6.83357 21.9255 6.41064 21.97Z" fill="#25602E"/>
<path d="M8.61431 23.7285C8.56979 23.5281 8.43623 23.3723 8.28042 23.261C8.1246 23.1497 7.94653 23.083 7.74619 23.0384C7.36778 22.9271 6.96712 22.9049 6.54419 22.8604C6.94486 22.7936 7.36779 22.7936 7.76845 22.9049C7.96879 22.9717 8.16912 23.0384 8.32494 23.1943C8.52527 23.3055 8.63657 23.5281 8.61431 23.7285Z" fill="#25602E"/>
<path d="M8.6366 27.4903C8.99275 27.0896 9.37116 26.689 9.63827 26.2438C9.77182 26.0212 9.88312 25.7763 9.9499 25.5315C9.99442 25.2866 9.9499 25.0195 9.81634 24.7747C9.99442 24.975 10.1057 25.2644 10.0612 25.5537C10.0389 25.8431 9.90538 26.088 9.77183 26.3328C9.48245 26.778 9.08178 27.1564 8.6366 27.4903Z" fill="#25602E"/>
<path d="M20.6567 39.5103C21.2577 39.6884 21.9032 38.6645 21.2577 38.4864C20.6121 38.3083 19.9666 39.31 20.6567 39.5103Z" fill="#1D957F"/>
</g>
<path d="M53.3897 26.2514C51.7817 26.2514 50.5577 25.8194 49.7177 24.9554C48.8897 24.0914 48.4457 22.8974 48.3857 21.3734C48.3737 21.0494 48.3677 20.5214 48.3677 19.7894C48.3677 19.0454 48.3737 18.5054 48.3857 18.1694C48.4457 16.6574 48.8957 15.4694 49.7357 14.6054C50.5757 13.7294 51.7937 13.2914 53.3897 13.2914C54.4577 13.2914 55.3637 13.4834 56.1077 13.8674C56.8517 14.2394 57.4157 14.7314 57.7997 15.3434C58.1837 15.9554 58.3937 16.6094 58.4297 17.3054V17.3414C58.4297 17.4374 58.3877 17.5214 58.3037 17.5934C58.2317 17.6534 58.1477 17.6834 58.0517 17.6834H57.0617C56.8217 17.6834 56.6717 17.5454 56.6117 17.2694C56.4077 16.3694 56.0417 15.7394 55.5137 15.3794C54.9857 15.0074 54.2777 14.8214 53.3897 14.8214C51.3257 14.8214 50.2577 15.9674 50.1857 18.2594C50.1737 18.5834 50.1677 19.0814 50.1677 19.7534C50.1677 20.4254 50.1737 20.9354 50.1857 21.2834C50.2577 23.5754 51.3257 24.7214 53.3897 24.7214C54.2777 24.7214 54.9857 24.5414 55.5137 24.1814C56.0537 23.8094 56.4197 23.1734 56.6117 22.2734C56.6477 22.1174 56.7017 22.0094 56.7737 21.9494C56.8457 21.8894 56.9417 21.8594 57.0617 21.8594H58.0517C58.1597 21.8594 58.2497 21.8954 58.3217 21.9674C58.4057 22.0274 58.4417 22.1114 58.4297 22.2194C58.3937 22.9274 58.1837 23.5874 57.7997 24.1994C57.4157 24.8114 56.8517 25.3094 56.1077 25.6934C55.3637 26.0654 54.4577 26.2514 53.3897 26.2514ZM64.442 26.2514C63.122 26.2514 62.096 25.8794 61.364 25.1354C60.644 24.3914 60.26 23.4014 60.212 22.1654L60.194 21.3914L60.212 20.6174C60.26 19.3934 60.65 18.4094 61.382 17.6654C62.114 16.9094 63.134 16.5314 64.442 16.5314C65.75 16.5314 66.77 16.9094 67.502 17.6654C68.234 18.4094 68.624 19.3934 68.672 20.6174C68.684 20.7494 68.69 21.0074 68.69 21.3914C68.69 21.7754 68.684 22.0334 68.672 22.1654C68.624 23.4014 68.234 24.3914 67.502 25.1354C66.782 25.8794 65.762 26.2514 64.442 26.2514ZM64.442 24.8654C65.198 24.8654 65.792 24.6254 66.224 24.1454C66.668 23.6654 66.908 22.9754 66.944 22.0754C66.956 21.9554 66.962 21.7274 66.962 21.3914C66.962 21.0554 66.956 20.8274 66.944 20.7074C66.908 19.8074 66.668 19.1174 66.224 18.6374C65.792 18.1574 65.198 17.9174 64.442 17.9174C63.686 17.9174 63.086 18.1574 62.642 18.6374C62.198 19.1174 61.964 19.8074 61.94 20.7074L61.922 21.3914L61.94 22.0754C61.964 22.9754 62.198 23.6654 62.642 24.1454C63.086 24.6254 63.686 24.8654 64.442 24.8654ZM71.3579 26.0714C71.2379 26.0714 71.1359 26.0354 71.0519 25.9634C70.9799 25.8794 70.9439 25.7774 70.9439 25.6574V17.1434C70.9439 17.0234 70.9799 16.9214 71.0519 16.8374C71.1359 16.7534 71.2379 16.7114 71.3579 16.7114H72.1859C72.3059 16.7114 72.4079 16.7534 72.4919 16.8374C72.5759 16.9214 72.6179 17.0234 72.6179 17.1434V17.9354C73.1099 17.1194 73.9499 16.7114 75.1379 16.7114H75.8399C75.9599 16.7114 76.0559 16.7534 76.1279 16.8374C76.2119 16.9094 76.2539 17.0054 76.2539 17.1254V17.8634C76.2539 17.9834 76.2119 18.0794 76.1279 18.1514C76.0559 18.2234 75.9599 18.2594 75.8399 18.2594H74.7599C74.1119 18.2594 73.6019 18.4514 73.2299 18.8354C72.8579 19.2074 72.6719 19.7174 72.6719 20.3654V25.6574C72.6719 25.7774 72.6299 25.8794 72.5459 25.9634C72.4619 26.0354 72.3599 26.0714 72.2399 26.0714H71.3579ZM81.44 26.2514C80.12 26.2514 79.094 25.8794 78.362 25.1354C77.642 24.3914 77.258 23.4014 77.21 22.1654L77.192 21.3914L77.21 20.6174C77.258 19.3934 77.648 18.4094 78.38 17.6654C79.112 16.9094 80.132 16.5314 81.44 16.5314C82.748 16.5314 83.768 16.9094 84.5 17.6654C85.232 18.4094 85.622 19.3934 85.67 20.6174C85.682 20.7494 85.688 21.0074 85.688 21.3914C85.688 21.7754 85.682 22.0334 85.67 22.1654C85.622 23.4014 85.232 24.3914 84.5 25.1354C83.78 25.8794 82.76 26.2514 81.44 26.2514ZM81.44 24.8654C82.196 24.8654 82.79 24.6254 83.222 24.1454C83.666 23.6654 83.906 22.9754 83.942 22.0754C83.954 21.9554 83.96 21.7274 83.96 21.3914C83.96 21.0554 83.954 20.8274 83.942 20.7074C83.906 19.8074 83.666 19.1174 83.222 18.6374C82.79 18.1574 82.196 17.9174 81.44 17.9174C80.684 17.9174 80.084 18.1574 79.64 18.6374C79.196 19.1174 78.962 19.8074 78.938 20.7074L78.92 21.3914L78.938 22.0754C78.962 22.9754 79.196 23.6654 79.64 24.1454C80.084 24.6254 80.684 24.8654 81.44 24.8654ZM88.356 26.0714C88.236 26.0714 88.134 26.0354 88.05 25.9634C87.978 25.8794 87.942 25.7774 87.942 25.6574V17.1254C87.942 17.0054 87.978 16.9094 88.05 16.8374C88.134 16.7534 88.236 16.7114 88.356 16.7114H89.202C89.322 16.7114 89.418 16.7534 89.49 16.8374C89.574 16.9094 89.616 17.0054 89.616 17.1254V17.9174C89.964 17.4734 90.372 17.1314 90.84 16.8914C91.32 16.6514 91.914 16.5314 92.622 16.5314C93.774 16.5314 94.668 16.9034 95.304 17.6474C95.952 18.3794 96.276 19.3574 96.276 20.5814V25.6574C96.276 25.7774 96.234 25.8794 96.15 25.9634C96.078 26.0354 95.982 26.0714 95.862 26.0714H94.962C94.842 26.0714 94.74 26.0354 94.656 25.9634C94.584 25.8794 94.548 25.7774 94.548 25.6574V20.6714C94.548 19.8194 94.338 19.1594 93.918 18.6914C93.51 18.2234 92.916 17.9894 92.136 17.9894C91.38 17.9894 90.78 18.2294 90.336 18.7094C89.892 19.1774 89.67 19.8314 89.67 20.6714V25.6574C89.67 25.7774 89.628 25.8794 89.544 25.9634C89.472 26.0354 89.376 26.0714 89.256 26.0714H88.356Z" fill="#1D957F"/>
<path d="M101.468 26.2514C100.88 26.2514 100.334 26.1314 99.83 25.8914C99.326 25.6514 98.924 25.3274 98.624 24.9194C98.336 24.4994 98.192 24.0374 98.192 23.5334C98.192 22.7414 98.516 22.0934 99.164 21.5894C99.824 21.0734 100.712 20.7374 101.828 20.5814L104.51 20.2034V19.6814C104.51 18.4574 103.808 17.8454 102.404 17.8454C101.876 17.8454 101.444 17.9594 101.108 18.1874C100.772 18.4034 100.52 18.6614 100.352 18.9614C100.316 19.0694 100.268 19.1474 100.208 19.1954C100.16 19.2434 100.088 19.2674 99.992 19.2674H99.218C99.11 19.2674 99.014 19.2314 98.93 19.1594C98.858 19.0754 98.822 18.9794 98.822 18.8714C98.834 18.5834 98.966 18.2594 99.218 17.8994C99.482 17.5274 99.884 17.2094 100.424 16.9454C100.964 16.6694 101.63 16.5314 102.422 16.5314C103.766 16.5314 104.732 16.8494 105.32 17.4854C105.908 18.1094 106.202 18.8894 106.202 19.8254V25.6574C106.202 25.7774 106.16 25.8794 106.076 25.9634C106.004 26.0354 105.908 26.0714 105.788 26.0714H104.96C104.84 26.0714 104.738 26.0354 104.654 25.9634C104.582 25.8794 104.546 25.7774 104.546 25.6574V24.8834C104.282 25.2674 103.898 25.5914 103.394 25.8554C102.89 26.1194 102.248 26.2514 101.468 26.2514ZM101.846 24.9014C102.626 24.9014 103.262 24.6494 103.754 24.1454C104.258 23.6294 104.51 22.8914 104.51 21.9314V21.4274L102.422 21.7334C101.57 21.8534 100.928 22.0574 100.496 22.3454C100.064 22.6214 99.848 22.9754 99.848 23.4074C99.848 23.8874 100.046 24.2594 100.442 24.5234C100.838 24.7754 101.306 24.9014 101.846 24.9014ZM109.222 29.4914C109.102 29.4914 109 29.4494 108.916 29.3654C108.844 29.2934 108.808 29.1974 108.808 29.0774V17.1254C108.808 17.0054 108.844 16.9094 108.916 16.8374C109 16.7534 109.102 16.7114 109.222 16.7114H110.05C110.17 16.7114 110.266 16.7534 110.338 16.8374C110.422 16.9094 110.464 17.0054 110.464 17.1254V17.9174C111.136 16.9934 112.12 16.5314 113.416 16.5314C114.676 16.5314 115.618 16.9274 116.242 17.7194C116.878 18.5114 117.22 19.5314 117.268 20.7794C117.28 20.9114 117.286 21.1154 117.286 21.3914C117.286 21.6674 117.28 21.8714 117.268 22.0034C117.22 23.2394 116.878 24.2594 116.242 25.0634C115.606 25.8554 114.664 26.2514 113.416 26.2514C112.168 26.2514 111.196 25.8014 110.5 24.9014V29.0774C110.5 29.1974 110.464 29.2934 110.392 29.3654C110.32 29.4494 110.224 29.4914 110.104 29.4914H109.222ZM113.038 24.7934C113.89 24.7934 114.508 24.5294 114.892 24.0014C115.288 23.4734 115.504 22.7774 115.54 21.9134C115.552 21.7934 115.558 21.6194 115.558 21.3914C115.558 19.1234 114.718 17.9894 113.038 17.9894C112.21 17.9894 111.586 18.2654 111.166 18.8174C110.758 19.3574 110.536 20.0054 110.5 20.7614L110.482 21.4454L110.5 22.1474C110.524 22.8554 110.752 23.4734 111.184 24.0014C111.616 24.5294 112.234 24.7934 113.038 24.7934ZM119.944 29.4914C119.824 29.4914 119.722 29.4494 119.638 29.3654C119.566 29.2934 119.53 29.1974 119.53 29.0774V17.1254C119.53 17.0054 119.566 16.9094 119.638 16.8374C119.722 16.7534 119.824 16.7114 119.944 16.7114H120.772C120.892 16.7114 120.988 16.7534 121.06 16.8374C121.144 16.9094 121.186 17.0054 121.186 17.1254V17.9174C121.858 16.9934 122.842 16.5314 124.138 16.5314C125.398 16.5314 126.34 16.9274 126.964 17.7194C127.6 18.5114 127.942 19.5314 127.99 20.7794C128.002 20.9114 128.008 21.1154 128.008 21.3914C128.008 21.6674 128.002 21.8714 127.99 22.0034C127.942 23.2394 127.6 24.2594 126.964 25.0634C126.328 25.8554 125.386 26.2514 124.138 26.2514C122.89 26.2514 121.918 25.8014 121.222 24.9014V29.0774C121.222 29.1974 121.186 29.2934 121.114 29.3654C121.042 29.4494 120.946 29.4914 120.826 29.4914H119.944ZM123.76 24.7934C124.612 24.7934 125.23 24.5294 125.614 24.0014C126.01 23.4734 126.226 22.7774 126.262 21.9134C126.274 21.7934 126.28 21.6194 126.28 21.3914C126.28 19.1234 125.44 17.9894 123.76 17.9894C122.932 17.9894 122.308 18.2654 121.888 18.8174C121.48 19.3574 121.258 20.0054 121.222 20.7614L121.204 21.4454L121.222 22.1474C121.246 22.8554 121.474 23.4734 121.906 24.0014C122.338 24.5294 122.956 24.7934 123.76 24.7934Z" fill="black"/>
<defs>
<clipPath id="clip0_205_108">
<rect width="39.2877" height="40" fill="white"/>
</clipPath>
</defs>
</svg>
